 <svg width="24" height="25" viewBox="0 0 24 25" fill="none" xmlns="http://www.w3.org/2000/svg">
                    <g clip-path="url(#clip0_5052_64937)">
                        <path fill-rule="evenodd" clip-rule="evenodd"
                            d="M11.9964 0.500002C13.8018 0.498973 15.5842 0.905545 17.2106 1.68943C18.8372 2.47332 20.2659 3.61434 21.3901 5.02743C22.5144 6.44052 23.3054 8.0892 23.704 9.85063C24.1026 11.6121 24.0986 13.4407 23.6923 15.2004C23.286 16.96 22.4879 18.6053 21.3574 20.0134C20.227 21.4216 18.7934 22.5563 17.1634 23.3332C15.5335 24.11 13.7493 24.5088 11.9439 24.4998C10.2391 24.4914 8.55692 24.1197 7.00899 23.4107L1.06649 24.4855C0.745835 24.5435 0.418725 24.4247 0.210039 24.1743C0.0013524 23.924 -0.0567462 23.5808 0.0579084 23.2757L1.7587 18.7494C0.71293 17.0347 0.112864 15.0824 0.0170619 13.0711C-0.0862244 10.9029 0.40033 8.74737 1.42497 6.83394C2.4496 4.92052 3.97393 3.32092 5.83554 2.20549C7.69709 1.09017 9.82652 0.500745 11.9964 0.500002ZM11.9972 2.31132C10.1548 2.31189 8.34669 2.81234 6.76609 3.75937C5.18543 4.7064 3.89121 6.06457 3.02122 7.6892C2.15128 9.31377 1.73814 11.144 1.82583 12.9849C1.91352 14.8258 2.49873 16.6085 3.5192 18.143C3.68041 18.3854 3.71526 18.6906 3.61289 18.9632L2.31427 22.4191L6.97249 21.5766C7.16221 21.5423 7.35793 21.5694 7.53114 21.6541C8.90842 22.3274 10.4199 22.6809 11.9529 22.6885C13.4858 22.6961 15.0007 22.3575 16.3846 21.698C17.7685 21.0384 18.9857 20.0749 19.9455 18.8793C20.9053 17.6837 21.583 16.2868 21.9279 14.7927C22.2729 13.2987 22.2763 11.7461 21.9379 10.2505C21.5994 8.75497 20.9278 7.35514 19.9732 6.15537C19.0186 4.9556 17.8057 3.9868 16.4246 3.3212C15.0436 2.6556 13.5302 2.3104 11.9972 2.31132Z"
                            fill="black" fill-opacity="0.89"></path>
                        <path fill-rule="evenodd" clip-rule="evenodd"
                            d="M12.3189 8.31701C11.998 8.25318 11.6654 8.28592 11.3632 8.41112C11.061 8.53638 10.8026 8.74843 10.6209 9.02055C10.4391 9.2926 10.3421 9.61255 10.3421 9.93975C10.3421 10.44 9.9367 10.8454 9.43666 10.8454C8.93663 10.8454 8.53125 10.44 8.53125 9.93975C8.53125 9.25426 8.73445 8.58421 9.1152 8.01421C9.49596 7.44426 10.0371 7.00003 10.6702 6.73769C11.3034 6.47541 12 6.40672 12.6722 6.54049C13.3443 6.67421 13.9617 7.00432 14.4463 7.48901C14.9309 7.97375 15.2609 8.59129 15.3946 9.26363C15.5283 9.93592 15.4597 10.6328 15.1974 11.2661C14.9352 11.8994 14.4911 12.4407 13.9212 12.8216C13.6071 13.0315 13.2625 13.1875 12.9016 13.2852V14.2068C12.9016 14.707 12.4962 15.1125 11.9962 15.1125C11.4962 15.1125 11.0908 14.707 11.0908 14.2068V12.5C11.0908 11.9998 11.4962 11.5943 11.9962 11.5943C12.3234 11.5943 12.6432 11.4973 12.9152 11.3155C13.1872 11.1337 13.3992 10.8753 13.5244 10.5729C13.6496 10.2706 13.6824 9.93792 13.6186 9.61701C13.5547 9.29603 13.3972 9.00124 13.1658 8.76981C12.9345 8.53844 12.6398 8.38083 12.3189 8.31701Z"
                            fill="black" fill-opacity="0.89"></path>
                        <path
                            d="M11.9985 16.7667C11.7454 16.7667 11.498 16.8418 11.2875 16.9825C11.077 17.1231 10.913 17.3231 10.8161 17.557C10.7193 17.7909 10.6939 18.0483 10.7434 18.2966C10.7927 18.5449 10.9146 18.773 11.0936 18.952C11.2725 19.1311 11.5006 19.253 11.7489 19.3024C11.9971 19.3518 12.2544 19.3264 12.4883 19.2295C12.7221 19.1327 12.922 18.9686 13.0626 18.758C13.2032 18.5475 13.2783 18.3 13.2783 18.0469C13.2739 17.7087 13.1376 17.3857 12.8985 17.1466C12.6595 16.9075 12.3365 16.7712 11.9985 16.7667Z"
                            fill="black" fill-opacity="0.89"></path>
                    </g>
                    <defs>
                        <clipPath>
                            <rect width="24" height="24" fill="white" transform="translate(0 0.5)"></rect>
                        </clipPath>
                    </defs>
                </svg>