<svg xmlns="http://www.w3.org/2000/svg" viewBox="0 0 16 16" width="32" height="32" class="css-1yzqo9z e1x29g350" aria-hidden="true"><path d="M15.682 8.184c0-.544-.044-1.09-.138-1.626H7.998v3.08h4.322a3.703 3.703 0 0 1-1.6 2.432v1.999H13.3c1.513-1.394 2.383-3.451 2.383-5.885Z" fill="#4285F4"></path><path d="M7.999 16c2.157 0 3.977-.709 5.303-1.931l-2.578-2c-.718.489-1.644.765-2.722.765-2.088 0-3.857-1.408-4.492-3.301H.85v2.06A8.001 8.001 0 0 0 7.999 16Z" fill="#34A853"></path><path d="M3.507 9.533a4.792 4.792 0 0 1 0-3.063V4.41H.85a8.007 8.007 0 0 0 0 7.184l2.657-2.06Z" fill="#FBBC04"></path><path d="M7.999 3.166a4.347 4.347 0 0 1 3.069 1.2l2.284-2.285A7.689 7.689 0 0 0 7.998.001a7.998 7.998 0 0 0-7.15 4.408L3.508 6.47c.632-1.896 2.405-3.304 4.492-3.304Z" fill="#EA4335"></path></svg>