  <svg width="24" height="25" viewBox="0 0 24 25" fill="none" xmlns="http://www.w3.org/2000/svg">
                    <path fill-rule="evenodd" clip-rule="evenodd"
                        d="M1.81131 13.1429C1.81131 12.9138 1.89137 12.6986 2.02743 12.5373C2.89771 11.5486 4.30874 10.1095 6.06086 8.92223C7.82183 7.72891 9.86057 6.83503 12 6.83503C14.1394 6.83503 16.1782 7.72891 17.9391 8.92223C19.6913 10.1095 21.1023 11.5486 21.9726 12.5373C22.1086 12.6986 22.1887 12.9138 22.1887 13.1429C22.1887 13.3719 22.1086 13.5871 21.9726 13.7485C21.1023 14.7371 19.6913 16.1762 17.9391 17.3635C16.1782 18.5568 14.1394 19.4507 12 19.4507C9.86057 19.4507 7.82183 18.5568 6.06086 17.3635C4.30874 16.1762 2.89771 14.7371 2.02743 13.7485C1.89137 13.5871 1.81131 13.3719 1.81131 13.1429ZM12 5C9.36834 5 6.97794 6.09308 5.05377 7.39697C3.12406 8.70463 1.59589 10.2698 0.670115 11.3222L0.670057 11.3221L0.661486 11.3321C0.232515 11.8342 0 12.4797 0 13.1429C0 13.8061 0.232515 14.4515 0.661486 14.9536L0.661428 14.9537L0.670115 14.9635C1.59589 16.0159 3.12406 17.5811 5.05377 18.8887C6.97794 20.1926 9.36834 21.2857 12 21.2857C14.6317 21.2857 17.0221 20.1926 18.9462 18.8887C20.8759 17.5811 22.4041 16.0159 23.3299 14.9635L23.3299 14.9636L23.3385 14.9536C23.7675 14.4515 24 13.8061 24 13.1429C24 12.4797 23.7675 11.8342 23.3385 11.3321L23.3386 11.3321L23.3299 11.3222C22.4041 10.2698 20.8759 8.70463 18.9462 7.39697C17.0221 6.09308 14.6317 5 12 5ZM9.48583 13.1429C9.48583 11.6179 10.6469 10.4477 12.0003 10.4477C13.3538 10.4477 14.5148 11.6179 14.5148 13.1429C14.5148 14.6679 13.3538 15.8381 12.0003 15.8381C10.6469 15.8381 9.48583 14.6679 9.48583 13.1429ZM12.0003 8.61269C9.576 8.61269 7.67452 10.6774 7.67452 13.1429C7.67452 15.6083 9.576 17.6731 12.0003 17.6731C14.4247 17.6731 16.3261 15.6083 16.3261 13.1429C16.3261 10.6774 14.4247 8.61269 12.0003 8.61269Z"
                        fill="black" fill-opacity="0.89"></path>
                </svg>