<svg width="64" height="64" viewBox="0 0 64 64" fill="none"
                    xmlns="http://www.w3.org/2000/svg">
                    <circle cx="32" cy="32" r="32" fill="#324FBE"></circle>
                    <path
                        d="M42.655 31.37L27.655 21.62C27.541 21.5542 27.4117 21.5195 27.28 21.5195C27.1483 21.5195 27.019 21.5542 26.905 21.62C26.7882 21.6803 26.6893 21.7703 26.6182 21.8808C26.5472 21.9914 26.5064 22.1187 26.5 22.25V41.75C26.4996 41.8849 26.5357 42.0175 26.6043 42.1336C26.6729 42.2498 26.7716 42.3452 26.89 42.41C27.0006 42.4697 27.1244 42.5006 27.25 42.5C27.3937 42.4996 27.5343 42.458 27.655 42.38L42.655 32.63C42.7603 32.562 42.8469 32.4687 42.9067 32.3587C42.9667 32.2486 42.9981 32.1253 42.9981 32C42.9981 31.8747 42.9667 31.7514 42.9067 31.6413C42.8469 31.5313 42.7603 31.438 42.655 31.37ZM28 40.37V23.63L40.8775 32L28 40.37Z"
                        fill="white" fill-opacity="0.89"></path>
                </svg>