<svg xmlns="http://www.w3.org/2000/svg" viewBox="0 0 502 271" width="502" height="271"
                    preserveAspectRatio="xMidYMid meet"
                    style="width: 100%; height: 100%; transform: translate3d(0px, 0px, 0px);">
                    <defs>
                        <clipPath>
                            <rect width="502" height="271" x="0" y="0"></rect>
                        </clipPath>
                        <filter filterUnits="objectBoundingBox" x="0%" y="0%" width="100%" height="100%">
                            <feComponentTransfer in="SourceGraphic">
                                <feFuncA type="table" tableValues="1.0 0.0"></feFuncA>
                            </feComponentTransfer>
                        </filter>
                        <mask mask-type="alpha">
                            <g filter="">
                                <rect width="502" height="271" x="0" y="0" fill="#ffffff" opacity="0"></rect>
                                <g style="display: block;"
                                    transform="matrix(4.559999942779541,0,0,4.559999942779541,433.488525390625,122.38318634033203)"
                                    opacity="1">
                                    <g opacity="1" transform="matrix(1,0,0,1,4.25,4.25)">
                                        <path fill="rgb(255,60,0)" fill-opacity="1"
                                            d=" M0,4 C2.2090001106262207,4 4,2.2090001106262207 4,0 C4,-2.2090001106262207 2.2090001106262207,-4 0,-4 C-2.2090001106262207,-4 -4,-2.2090001106262207 -4,0 C-4,2.2090001106262207 -2.2090001106262207,4 0,4z">
                                        </path>
                                    </g>
                                </g>
                            </g>
                        </mask>
                        <mask>
                            <path fill="#ffffff" clip-rule="nonzero"
                                d="M0,0  h502 v271 h-502 v-271  M474.8580017089844,122.14399719238281 C474.8580017089844,122.14399719238281 458.6080017089844,141.3939971923828 458.6080017089844,141.3939971923828 C458.6080017089844,141.3939971923828 472.6080017089844,149.3939971923828 472.6080017089844,149.3939971923828 C472.6080017089844,149.3939971923828 485.3580017089844,134.1439971923828 483.8580017089844,133.1439971923828 C482.3580017089844,132.1439971923828 474.8580017089844,122.14399719238281 474.8580017089844,122.14399719238281"
                                fill-opacity="1"></path>
                        </mask>
                    </defs>
                    <g clip-path="">
                        <g style="display: block;" transform="matrix(1,0,0,1,448.6185302734375,137.51318359375)"
                            opacity="1">
                            <g opacity="1" transform="matrix(1,0,0,1,4.25,4.25)">
                                <path fill="rgb(255,60,0)" fill-opacity="1"
                                    d=" M0,4 C2.2090001106262207,4 4,2.2090001106262207 4,0 C4,-2.2090001106262207 2.2090001106262207,-4 0,-4 C-2.2090001106262207,-4 -4,-2.2090001106262207 -4,0 C-4,2.2090001106262207 -2.2090001106262207,4 0,4z">
                                </path>
                            </g>
                        </g>
                        <g mask="" style="display: block;">
                            <g mask="" transform="matrix(1,0,0,1,9.642013549804688,-38.14500427246094)" opacity="1">
                                <g opacity="1" transform="matrix(1,0,0,1,237.5679931640625,171.531005859375)">
                                    <path stroke-linecap="butt" stroke-linejoin="bevel" fill-opacity="0"
                                        stroke="rgb(255,60,0)" stroke-opacity="1" stroke-width="4"
                                        d=" M-233.5679931640625,-22.527000427246094 C-55.83599853515625,167.531005859375 197.0260009765625,-38.18600082397461 177.17300415039062,-94.98200225830078 C151.81399536132812,-167.52999877929688 -42.571998596191406,70.6449966430664 79.93199920654297,85.28500366210938 C109.33100128173828,88.7979965209961 153.6060028076172,75.5780029296875 199.85299682617188,16.56399917602539">
                                    </path>
                                </g>
                            </g>
                        </g>
                    </g>
                </svg>